<?xml version="1.0" encoding="UTF-8"?><svg id="Expressive_Outlined" xmlns="http://www.w3.org/2000/svg" xmlns:xlink="http://www.w3.org/1999/xlink" viewBox="0 0 192 192"><defs><style>.cls-1{fill:url(#Orange-to-pink-gradient);}.cls-1,.cls-2{stroke-width:0px;}.cls-2{fill:#fff;}</style><linearGradient id="Orange-to-pink-gradient" x1="28" y1="57.5125" x2="164" y2="57.5125" gradientUnits="userSpaceOnUse"><stop offset=".1" stop-color="#ff712b"/><stop offset=".9" stop-color="#ff0f7b"/></linearGradient></defs><path class="cls-2" d="m163.9736,134.4878c0,1.0718-.5723,2.062-1.5,2.5981l-13.3262,7.6934c-.4727.2725-.9883.4023-1.4971.4023-1.0371,0-2.0449-.5381-2.6006-1.5005-.8291-1.4351-.3369-3.2695,1.0977-4.0981l8.8262-5.0952-27.3311-15.7798-30.1426,17.4028c-.4639.2681-.9824.4019-1.5.4019s-1.0361-.1338-1.5-.4019l-30.1426-17.4028-27.3311,15.7798,58.9736,34.0483,6.3066-3.6411c1.4375-.8286,3.2695-.3364,4.0977,1.0981.8291,1.4351.3369,3.2695-1.0977,4.0981l-7.8066,4.5068c-.4639.2681-.9824.4019-1.5.4019s-1.0361-.1338-1.5-.4019l-64.9736-37.5122c-.9277-.5361-1.5-1.5264-1.5-2.5981s.5723-2.062,1.5-2.5981l28.8311-16.646-28.8311-16.6455c-.9277-.5361-1.5-1.5264-1.5-2.5981s.5723-2.062,1.5-2.5981l33.3311-19.2437c1.4375-.8267,3.2695-.3359,4.0977,1.0981.8291,1.4351.3369,3.2695-1.0977,4.0981l-28.8311,16.6455,58.9736,34.0488,58.9736-34.0488-28.8311-16.6455c-1.4346-.8286-1.9268-2.6631-1.0977-4.0981.8281-1.4341,2.6621-1.9263,4.0977-1.0981l33.3311,19.2437c.9277.5361,1.5,1.5264,1.5,2.5981s-.5723,2.062-1.5,2.5981l-28.8311,16.6455,28.8311,16.646c.9287.5361,1.5,1.5264,1.5,2.5981Zm-44.0781,20.2524l-.0869.0498c-1.4375.8237-1.9355,2.6572-1.1113,4.0947.5537.9673,1.5654,1.5088,2.6055,1.5088.5059,0,1.0186-.1279,1.4883-.3975l.0869-.0498c1.4375-.8237,1.9355-2.6572,1.1113-4.0947-.8232-1.438-2.6592-1.9355-4.0938-1.1113Zm-8.7803,5.0684l-.0869.0503c-1.4336.8301-1.9238,2.665-1.0938,4.0991.5566.9609,1.5635,1.498,2.5996,1.498.5098,0,1.0264-.1304,1.5-.4038l.0869-.0503c1.4336-.8301,1.9238-2.665,1.0938-4.0991-.8301-1.4336-2.6641-1.9238-4.0996-1.0942Zm17.5234-10.1172l-.0859.0503c-1.4297.8369-1.8672,2.6494-1.0303,4.0796.5537.9468,1.5654,1.4663,2.6016,1.4663.5283,0,1.0625-.1348,1.5459-.4175,1.4297-.8369,1.9102-2.6748,1.0732-4.1045-.8359-1.4297-2.6719-1.9106-4.1045-1.0742Zm8.7812-5.0698l-.0869.0503c-1.4336.8301-1.9238,2.665-1.0938,4.0991.5566.9609,1.5635,1.498,2.5996,1.498.5098,0,1.0264-.1304,1.5-.4038l.0869-.0503c1.4336-.8301,1.9238-2.665,1.0938-4.0991-.8311-1.4341-2.6631-1.9233-4.0996-1.0942Z"/><path class="cls-1" d="m29.0303,59.2971l65.4697,37.799c.9282.5359,2.0718.5359,3,0l65.4697-37.799c1.3737-.7931,1.3737-2.7759,0-3.5691L97.5,17.929c-.9282-.5359-2.0718-.5359-3,0L29.0303,55.728c-1.3737.7931-1.3737,2.7759,0,3.5691Z"/></svg>